<svg width="88" height="88" viewBox="0 0 88 88" fill="none" xmlns="http://www.w3.org/2000/svg">
<rect width="87.6181" height="87.6181" rx="21.9045" fill="#3A972E"/>
<path d="M64.9361 15.1428C67.0442 15.5791 68.3997 17.6419 67.9635 19.75C67.7356 20.8512 67.5504 21.5755 67.4293 22.9155C67.3056 24.2843 67.2512 26.3389 67.4227 29.7989C67.59 33.1725 68.005 37.9427 67.6931 42.7887C67.3777 47.6878 66.3112 53.0896 63.2842 57.9324C59.9968 63.1917 54.3759 66.1063 48.7946 66.9335C44.2413 67.6082 39.3177 66.9532 35.2209 64.6874C34.6574 65.0655 34.083 65.4258 33.4956 65.7669C28.8291 68.4768 23.6335 69.8931 17.6991 70.8211C15.5722 71.1537 13.5779 69.6995 13.2452 67.5727C12.9126 65.4457 14.3677 63.4517 16.4947 63.1191C21.611 62.319 25.5599 61.2043 28.9096 59.3995C26.9138 57.1407 25.3864 54.6297 24.5129 51.7673C23.1458 47.2868 23.5304 42.4638 25.3784 37.2182C27.2053 32.0325 31.4161 28.1344 35.3105 25.5318C39.218 22.9204 43.4524 21.185 46.1774 20.6681L46.3738 20.6364C47.3615 20.5009 48.367 20.7492 49.1804 21.3344C50.0475 21.9584 50.6207 22.9109 50.7656 23.9694L50.7762 24.0476C50.7686 23.9961 50.7661 23.9718 50.7661 23.9718L50.7655 23.9739C50.7655 23.9739 50.767 23.9778 50.7673 23.98C50.7679 23.9843 50.7678 23.9898 50.7686 23.9961C50.7703 24.0091 50.7734 24.0266 50.7762 24.0476C50.7816 24.0897 50.7884 24.1479 50.7972 24.221C50.8149 24.3673 50.839 24.5746 50.8662 24.8371C50.9206 25.3618 50.9879 26.1094 51.0466 27.0326C51.1636 28.8744 51.2455 31.4412 51.1035 34.3551C50.826 40.0489 49.6722 47.6484 45.7309 53.6375C44.4387 55.601 43.1062 57.3571 41.7171 58.9318C43.5423 59.409 45.5827 59.529 47.6523 59.2223C51.4987 58.6522 54.8513 56.7154 56.6732 53.801C58.7553 50.47 59.6424 46.4995 59.9135 42.2876C60.188 38.0226 59.8234 33.9421 59.6372 30.1853C59.4552 26.5151 59.4976 24.0698 59.6653 22.2137C59.8356 20.3293 60.136 19.1028 60.329 18.1702C60.7652 16.0622 62.8281 14.7066 64.9361 15.1428ZM43.3664 29.8905C42.1962 30.4527 40.9182 31.1612 39.6417 32.0143C36.371 34.2002 33.7512 36.9125 32.7309 39.8084C31.2694 43.957 31.2161 47.0232 31.9695 49.4921C32.498 51.224 33.5004 52.9104 35.0985 54.6228C36.4895 53.1611 37.8524 51.4275 39.2187 49.3514C42.0008 45.1237 43.0616 39.2251 43.3174 33.9749C43.3897 32.4929 43.3939 31.1086 43.3664 29.8905Z" fill="white"/>
</svg>
