<svg width="234" height="234" viewBox="0 0 234 234" fill="none" xmlns="http://www.w3.org/2000/svg">
<g clip-path="url(#clip0_3394_13892)">
<path d="M165.929 169.977C162.762 168.338 159.873 166.153 157.434 163.319C151.47 156.407 147.445 145.743 153.548 137.621C162.438 125.785 180.308 128.923 190.528 137.095C200.146 144.78 204.011 157.773 205.918 169.485C206.175 171.071 188.607 173.659 186.793 173.785C179.598 174.273 172.205 173.223 165.919 169.972L165.929 169.977Z" fill="white" fill-opacity="0.3"/>
<path d="M171.698 126.516C179.296 126.878 186.986 129.983 192.616 134.484L192.615 134.484C203.276 143.003 207.291 157.119 209.217 168.947L209.217 168.95C209.506 170.731 208.424 171.888 208.033 172.249C207.563 172.683 207.044 172.962 206.703 173.127C205.976 173.48 205.079 173.775 204.211 174.023C202.42 174.534 200.069 175.032 197.749 175.468C193.148 176.332 188.14 177.043 187.025 177.12L187.02 177.12C179.398 177.638 171.379 176.545 164.428 172.963C164.416 172.957 164.404 172.952 164.392 172.946C160.88 171.128 157.642 168.686 154.9 165.5L154.9 165.499C151.643 161.722 148.832 156.839 147.7 151.635C146.553 146.363 147.116 140.617 150.875 135.613C156.148 128.594 164.036 126.151 171.698 126.516Z" stroke="white" stroke-opacity="0.7" stroke-width="6.68571" stroke-miterlimit="10" stroke-linejoin="round"/>
<path d="M97.5165 183.781C97.348 180.227 97.8086 176.632 99.0386 173.103C102.048 164.482 109.268 155.668 119.347 156.895C134.048 158.683 140.26 175.719 138.289 188.661C136.433 200.836 127.128 210.68 117.935 218.191C116.694 219.203 105.663 205.29 104.652 203.785C100.625 197.801 97.84 190.869 97.5111 183.79L97.5165 183.781Z" fill="white" fill-opacity="0.3"/>
<path d="M120.56 153.689C128.843 154.988 134.637 160.459 138.042 167.064C141.526 173.825 142.679 182.036 141.594 189.164L141.594 189.165C139.536 202.658 129.338 213.192 120.05 220.78L120.048 220.78C118.645 221.925 117.097 221.559 116.594 221.402C115.985 221.212 115.485 220.903 115.172 220.691C114.505 220.238 113.802 219.608 113.153 218.98C111.815 217.685 110.208 215.9 108.671 214.109C105.626 210.562 102.506 206.583 101.879 205.651C97.6028 199.297 94.5362 191.782 94.1719 183.945C94.1682 183.865 94.1672 183.786 94.1693 183.706C94.0125 179.827 94.5299 175.883 95.8824 172.002L95.882 172.001C97.5263 167.29 100.352 162.415 104.294 158.832C108.285 155.205 113.541 152.821 119.751 153.576L120.56 153.689Z" stroke="white" stroke-opacity="0.7" stroke-width="6.68571" stroke-miterlimit="10" stroke-linejoin="round"/>
<path d="M49.6793 132.697C52.683 130.772 56.0177 129.367 59.6868 128.671C68.6594 126.963 79.8957 128.807 83.8819 138.162C89.6827 151.781 78.0442 165.689 65.8433 170.454C54.3742 174.935 41.1934 171.804 30.0896 167.589C28.5865 167.023 35.1286 150.513 35.9314 148.882C39.1003 142.41 43.7073 136.529 49.6738 132.706L49.6793 132.697Z" fill="white" fill-opacity="0.3"/>
<path d="M74.673 126.085C79.8112 127.729 84.5027 131.091 86.9572 136.851L86.958 136.851C90.3976 144.927 88.5715 152.981 84.4255 159.435C80.3143 165.835 73.7802 170.944 67.0596 173.568L67.0592 173.567C54.3486 178.533 40.124 174.974 28.903 170.714L28.9027 170.713C27.2176 170.074 26.7556 168.56 26.6383 168.041C26.497 167.416 26.515 166.827 26.5422 166.45C26.6001 165.644 26.793 164.72 27.0127 163.844C27.4657 162.038 28.2093 159.753 28.9924 157.526C30.544 153.114 32.4353 148.415 32.932 147.406L32.9333 147.405C36.2691 140.595 41.1831 134.231 47.7057 129.999C47.761 129.958 47.8176 129.919 47.8754 129.882C51.2079 127.747 54.9403 126.169 59.0644 125.387C63.9663 124.454 69.5997 124.462 74.673 126.085Z" stroke="white" stroke-opacity="0.7" stroke-width="6.68571" stroke-miterlimit="10" stroke-linejoin="round"/>
<path d="M70.365 67.3272C73.5317 68.9663 76.4209 71.1516 78.8599 73.9855C84.8234 80.898 88.8485 91.5615 82.7462 99.6834C73.8559 111.52 55.9859 108.382 45.7658 100.21C36.1479 92.5249 32.2823 79.5311 30.3761 67.82C30.1189 66.2332 47.6864 63.6457 49.5003 63.5196C56.6961 63.0312 64.0884 64.0819 70.3745 67.3327L70.365 67.3272Z" fill="white" fill-opacity="0.3"/>
<path d="M71.9014 64.3585C75.413 66.1761 78.6513 68.6182 81.3936 71.8043L81.3923 71.8047C84.6505 75.582 87.4616 80.4652 88.5941 85.6705C89.7052 90.7772 89.2117 96.3296 85.7619 101.221L85.4191 101.691C80.1467 108.711 72.2582 111.153 64.5963 110.789C56.9984 110.427 49.3078 107.322 43.6782 102.821L43.6787 102.82C33.0177 94.3007 29.0019 80.1851 27.0766 68.3568L27.0767 68.3546C26.788 66.5728 27.8706 65.4158 28.2609 65.0555C28.7309 64.6216 29.2488 64.343 29.5899 64.1775C30.3167 63.8248 31.2146 63.5299 32.0836 63.282C33.8747 62.7709 36.2251 62.2721 38.545 61.8366C43.1461 60.9729 48.1539 60.2625 49.2684 60.185L49.2741 60.1849C56.8928 59.6679 64.9092 60.7593 71.8589 64.3385C71.8729 64.3455 71.8875 64.3513 71.9014 64.3585Z" stroke="white" stroke-opacity="0.7" stroke-width="6.68571" stroke-miterlimit="10" stroke-linejoin="round"/>
<path d="M138.133 50.6266C138.302 54.1808 137.841 57.7756 136.611 61.3046C133.602 69.9255 126.381 78.7391 116.302 77.5124C101.602 75.7244 95.3891 58.6884 97.3603 45.7464C99.217 33.5709 108.521 23.7271 117.715 16.2166C118.955 15.2043 129.986 29.1177 130.997 30.6224C135.024 36.6062 137.81 43.5385 138.138 50.6171L138.133 50.6266Z" fill="white" fill-opacity="0.3"/>
<path d="M120.477 13.7164C121.144 14.1692 121.848 14.7988 122.497 15.4271C123.834 16.7221 125.441 18.5078 126.979 20.2984C130.026 23.8475 133.148 27.8296 133.772 28.7582L133.771 28.7577C138.047 35.1114 141.114 42.6261 141.478 50.4623C141.481 50.5306 141.48 50.5989 141.479 50.6671C141.63 54.3097 141.187 58.0101 140.017 61.6616L139.768 62.4053L139.767 62.4062C138.123 67.1167 135.298 71.9929 131.356 75.5755C127.365 79.203 122.109 81.5856 115.898 80.8298L115.899 80.8312C107.182 79.771 101.122 74.1619 97.6081 67.3437C94.1234 60.5829 92.9697 52.3715 94.0554 45.2431L94.0559 45.2423C96.1136 31.7495 106.312 21.2157 115.6 13.6275L115.602 13.6272C117.005 12.4824 118.552 12.8477 119.055 13.0049C119.664 13.1955 120.164 13.504 120.477 13.7164Z" stroke="white" stroke-opacity="0.7" stroke-width="6.68571" stroke-miterlimit="10" stroke-linejoin="round"/>
<path d="M185.959 101.717C182.955 103.641 179.621 105.047 175.952 105.742C166.979 107.45 155.743 105.606 151.757 96.2518C145.956 82.6327 157.594 68.7241 169.795 63.9592C181.264 59.4783 194.445 62.6093 205.549 66.8248C207.052 67.3898 200.51 83.9002 199.707 85.5311C196.538 92.0032 191.931 97.8848 185.965 101.707L185.959 101.717Z" fill="white" fill-opacity="0.3"/>
<path d="M206.735 63.7004C208.421 64.3395 208.883 65.8544 209 66.3726C209.141 66.9975 209.123 67.5862 209.096 67.9639C209.038 68.7694 208.845 69.6939 208.625 70.57C208.173 72.376 207.429 74.6608 206.646 76.8875C205.094 81.2998 203.203 85.9991 202.706 87.008L202.705 87.0075C199.37 93.8179 194.455 100.182 187.932 104.414C187.877 104.454 187.821 104.494 187.763 104.531C184.43 106.667 180.698 108.245 176.574 109.026C171.672 109.959 166.038 109.952 160.965 108.329C155.827 106.685 151.136 103.322 148.682 97.5619L148.681 97.5614C145.241 89.4861 147.067 81.4331 151.213 74.9787C155.324 68.5784 161.858 63.47 168.579 60.8453L169.175 60.619C181.733 55.9907 195.689 59.506 206.735 63.6995L206.735 63.7004Z" stroke="white" stroke-opacity="0.7" stroke-width="6.68571" stroke-miterlimit="10" stroke-linejoin="round"/>
<path d="M172.728 80.6559C174.309 79.7031 176.363 80.2118 177.316 81.7928C178.268 83.3739 177.759 85.429 176.178 86.3819L134.549 111.467C136.041 115.163 136.247 119.344 134.972 123.272L181.121 149.916C182.719 150.839 183.267 152.883 182.344 154.482C181.421 156.08 179.376 156.628 177.778 155.705L131.722 129.115C128.938 132.413 125.079 134.467 120.975 135.057L121.043 190.774C121.045 192.62 119.549 194.118 117.703 194.121C115.858 194.123 114.36 192.628 114.357 190.782L114.289 134.708C112.781 134.326 111.3 133.733 109.886 132.916C108.098 131.884 106.564 130.579 105.307 129.086L57.5964 157.84C56.0155 158.792 53.9616 158.283 53.0087 156.703C52.0558 155.121 52.5649 153.066 54.146 152.113L102.071 123.231C100.932 119.676 100.94 115.765 102.259 112.105L56.1875 85.5053C54.5889 84.5822 54.0412 82.5377 54.9639 80.939C55.8871 79.3403 57.9315 78.7925 59.5302 79.7154L105.695 106.369C108.015 103.793 111.012 102.032 114.249 101.205L114.189 50.6895C114.187 48.8433 115.682 47.3443 117.528 47.342C119.374 47.3399 120.872 48.8345 120.875 50.6804L120.935 100.833C123.07 101.132 125.186 101.838 127.168 102.983C128.568 103.791 129.812 104.765 130.889 105.866L172.728 80.6559ZM123.826 108.773C118.757 105.847 112.276 107.583 109.35 112.651C106.424 117.72 108.161 124.2 113.229 127.127C118.297 130.053 124.778 128.316 127.704 123.248C130.63 118.18 128.894 111.699 123.826 108.773Z" fill="white" fill-opacity="0.7"/>
</g>
<defs>
<clipPath id="clip0_3394_13892">
<rect width="234" height="234" fill="white"/>
</clipPath>
</defs>
</svg>
