<svg width="234" height="234" viewBox="0 0 234 234" fill="none" xmlns="http://www.w3.org/2000/svg">
<g clip-path="url(#clip0_3394_13911)">
<path d="M171.672 126.516C179.269 126.878 186.96 129.983 192.59 134.484L192.588 134.484C203.25 143.003 207.265 157.119 209.19 168.947L209.191 168.95C209.48 170.731 208.397 171.888 208.007 172.249C207.537 172.683 207.018 172.962 206.677 173.127C205.95 173.48 205.053 173.775 204.184 174.023C202.393 174.534 200.043 175.032 197.723 175.468C193.122 176.332 188.113 177.043 186.999 177.12L186.993 177.12C179.372 177.638 171.353 176.545 164.402 172.963C164.39 172.957 164.377 172.952 164.366 172.946C160.854 171.128 157.616 168.686 154.873 165.5L154.874 165.499C151.616 161.722 148.806 156.839 147.673 151.635C146.526 146.363 147.089 140.617 150.849 135.613C156.121 128.594 164.01 126.151 171.672 126.516Z" fill="#3A972E" fill-opacity="0.5" stroke="#3A972E" stroke-width="6.68571" stroke-miterlimit="10" stroke-linejoin="round"/>
<path d="M120.538 153.689C128.821 154.988 134.615 160.459 138.02 167.064C141.504 173.825 142.657 182.036 141.572 189.164L141.572 189.165C139.514 202.658 129.316 213.192 120.028 220.78L120.026 220.78C118.623 221.925 117.075 221.559 116.572 221.402C115.963 221.212 115.463 220.903 115.15 220.691C114.483 220.238 113.78 219.608 113.131 218.98C111.793 217.685 110.186 215.9 108.649 214.109C105.604 210.562 102.484 206.583 101.857 205.651C97.5809 199.297 94.5142 191.782 94.15 183.945C94.1463 183.865 94.1453 183.786 94.1473 183.706C93.9905 179.827 94.5079 175.883 95.8604 172.002L95.8601 172.001C97.5043 167.29 100.33 162.415 104.272 158.832C108.263 155.205 113.519 152.821 119.729 153.576L120.538 153.689Z" fill="#3A972E" fill-opacity="0.5" stroke="#3A972E" stroke-width="6.68571" stroke-miterlimit="10" stroke-linejoin="round"/>
<path d="M74.6642 126.085C79.8024 127.729 84.4939 131.091 86.9484 136.851L86.9492 136.851C90.3888 144.927 88.5627 152.981 84.4167 159.435C80.3055 165.835 73.7714 170.944 67.0508 173.568L67.0504 173.567C54.3398 178.533 40.1152 174.974 28.8942 170.714L28.8939 170.713C27.2088 170.074 26.7468 168.56 26.6295 168.041C26.4882 167.416 26.5062 166.827 26.5334 166.45C26.5913 165.644 26.7842 164.72 27.004 163.844C27.4569 162.038 28.2005 159.753 28.9836 157.526C30.5352 153.114 32.4265 148.415 32.9232 147.406L32.9245 147.405C36.2603 140.595 41.1743 134.231 47.6969 129.999C47.7522 129.958 47.8088 129.919 47.8666 129.882C51.1991 127.747 54.9315 126.169 59.0556 125.387C63.9575 124.454 69.5909 124.462 74.6642 126.085Z" fill="#3A972E" fill-opacity="0.5" stroke="#3A972E" stroke-width="6.68571" stroke-miterlimit="10" stroke-linejoin="round"/>
<path d="M71.8751 64.3585C75.3867 66.1761 78.625 68.6182 81.3672 71.8043L81.3659 71.8047C84.6241 75.582 87.4352 80.4652 88.5678 85.6705C89.6788 90.7772 89.1853 96.3296 85.7356 101.221L85.3927 101.691C80.1204 108.711 72.2319 111.153 64.5699 110.789C56.972 110.427 49.2814 107.322 43.6518 102.821L43.6523 102.82C32.9914 94.3007 28.9755 80.1851 27.0502 68.3568L27.0504 68.3546C26.7616 66.5728 27.8442 65.4158 28.2345 65.0555C28.7045 64.6216 29.2225 64.343 29.5635 64.1775C30.2903 63.8248 31.1883 63.5299 32.0573 63.282C33.8483 62.7709 36.1988 62.2721 38.5187 61.8366C43.1198 60.9729 48.1275 60.2625 49.2421 60.185L49.2477 60.1849C56.8665 59.6679 64.8828 60.7593 71.8325 64.3385C71.8465 64.3455 71.8611 64.3513 71.8751 64.3585Z" fill="#3A972E" fill-opacity="0.5" stroke="#3A972E" stroke-width="6.68571" stroke-miterlimit="10" stroke-linejoin="round"/>
<path d="M120.468 13.7339C121.135 14.1867 121.839 14.8163 122.488 15.4447C123.825 16.7397 125.433 18.5254 126.97 20.316C130.017 23.8651 133.14 27.8472 133.763 28.7758L133.763 28.7753C138.038 35.129 141.105 42.6437 141.469 50.4798C141.472 50.5482 141.472 50.6165 141.471 50.6847C141.621 54.3273 141.179 58.0277 140.008 61.6792L139.759 62.4229L139.758 62.4238C138.114 67.1343 135.289 72.0104 131.348 75.5931C127.356 79.2206 122.1 81.6032 115.89 80.8474L115.89 80.8487C107.174 79.7886 101.114 74.1795 97.5993 67.3612C94.1146 60.6005 92.961 52.389 94.0467 45.2607L94.0471 45.2599C96.1048 31.767 106.303 21.2333 115.592 13.6451L115.593 13.6448C116.996 12.4999 118.544 12.8653 119.046 13.0225C119.656 13.2131 120.155 13.5215 120.468 13.7339Z" fill="#3A972E" fill-opacity="0.5" stroke="#3A972E" stroke-width="6.68571" stroke-miterlimit="10" stroke-linejoin="round"/>
<path d="M206.713 63.7004C208.399 64.3395 208.861 65.8544 208.978 66.3726C209.119 66.9975 209.101 67.5862 209.074 67.9639C209.016 68.7694 208.823 69.6939 208.603 70.57C208.151 72.376 207.407 74.6608 206.624 76.8875C205.072 81.2998 203.181 85.9991 202.684 87.008L202.683 87.0075C199.348 93.8179 194.433 100.182 187.91 104.414C187.855 104.454 187.799 104.494 187.741 104.531C184.408 106.667 180.676 108.245 176.552 109.026C171.65 109.959 166.016 109.952 160.943 108.329C155.805 106.685 151.114 103.322 148.66 97.5619L148.659 97.5614C145.219 89.4861 147.045 81.4331 151.191 74.9787C155.302 68.5784 161.836 63.47 168.557 60.8453L169.153 60.619C181.711 55.9907 195.667 59.506 206.713 63.6995L206.713 63.7004Z" fill="#3A972E" fill-opacity="0.5" stroke="#3A972E" stroke-width="6.68571" stroke-miterlimit="10" stroke-linejoin="round"/>
<path d="M172.723 80.6329C174.304 79.6802 176.358 80.1892 177.312 81.7698C178.264 83.351 177.755 85.406 176.174 86.3589L134.535 111.449C136.035 115.149 136.245 119.337 134.968 123.271L181.12 149.916C182.718 150.839 183.266 152.884 182.343 154.482C181.42 156.081 179.376 156.629 177.777 155.706L131.719 129.114C128.935 132.413 125.076 134.468 120.972 135.059L121.039 190.751C121.041 192.597 119.545 194.095 117.699 194.098C115.853 194.099 114.355 192.605 114.353 190.759L114.285 134.709C112.777 134.327 111.295 133.734 109.881 132.918C108.087 131.882 106.549 130.572 105.289 129.073L57.5922 157.817C56.011 158.77 53.9563 158.26 53.0035 156.679C52.0513 155.098 52.561 153.043 54.1418 152.09L102.06 123.212C100.927 119.662 100.938 115.757 102.256 112.104L56.1866 85.5057C54.5885 84.5824 54.0402 82.538 54.9631 80.9394C55.8861 79.341 57.9307 78.7935 59.5294 79.7159L105.693 106.368C108.012 103.793 111.008 102.034 114.245 101.207L114.184 50.666C114.182 48.8202 115.678 47.3216 117.524 47.3191C119.37 47.317 120.868 48.8116 120.871 50.6574L120.931 100.833C123.066 101.132 125.181 101.84 127.163 102.984C128.556 103.788 129.795 104.757 130.869 105.852L172.723 80.6329ZM123.821 108.774C118.752 105.848 112.272 107.585 109.345 112.653C106.42 117.721 108.156 124.202 113.224 127.128C118.292 130.054 124.773 128.317 127.699 123.249C130.625 118.181 128.889 111.7 123.821 108.774Z" fill="#3A972E"/>
</g>
<defs>
<clipPath id="clip0_3394_13911">
<rect width="234" height="234" fill="white"/>
</clipPath>
</defs>
</svg>
