<svg width="56" height="56" viewBox="0 0 56 56" fill="none" xmlns="http://www.w3.org/2000/svg">
<rect width="55.2809" height="55.2809" rx="13.8202" fill="white"/>
<path d="M40.9706 9.55423C42.3007 9.82949 43.1559 11.131 42.8807 12.461C42.7369 13.1558 42.6201 13.6128 42.5437 14.4583C42.4656 15.3219 42.4313 16.6182 42.5395 18.8012C42.645 20.9297 42.9069 23.9394 42.7101 26.9969C42.5111 30.0879 41.8382 33.496 39.9284 36.5515C37.8542 39.8697 34.3079 41.7087 30.7864 42.2306C27.9137 42.6562 24.8072 42.243 22.2224 40.8134C21.8668 41.052 21.5044 41.2793 21.1338 41.4945C18.1896 43.2043 14.9115 44.0978 11.1673 44.6833C9.82543 44.8932 8.56715 43.9757 8.35726 42.6338C8.14741 41.2919 9.06549 40.0338 10.4074 39.8239C13.6355 39.3191 16.1269 38.6158 18.2404 37.4772C16.9811 36.052 16.0175 34.4678 15.4664 32.6617C14.6038 29.8349 14.8465 26.7919 16.0124 23.4823C17.1651 20.2105 19.8218 17.751 22.2789 16.109C24.7443 14.4614 27.4159 13.3665 29.1351 13.0403L29.2591 13.0203C29.8823 12.9348 30.5167 13.0915 31.0298 13.4607C31.5769 13.8544 31.9386 14.4554 32.03 15.1232L32.0367 15.1726C32.0319 15.1401 32.0303 15.1247 32.0303 15.1247L32.03 15.126C32.03 15.126 32.0309 15.1285 32.0311 15.1299C32.0314 15.1326 32.0314 15.1361 32.0319 15.1401C32.033 15.1483 32.035 15.1593 32.0367 15.1726C32.0401 15.1991 32.0444 15.2358 32.05 15.2819C32.0611 15.3743 32.0763 15.5051 32.0935 15.6706C32.1278 16.0017 32.1703 16.4734 32.2073 17.0559C32.2811 18.2179 32.3328 19.8374 32.2432 21.6759C32.0681 25.2683 31.3402 30.063 28.8534 33.8417C28.0382 35.0805 27.1975 36.1885 26.321 37.182C27.4726 37.4831 28.76 37.5588 30.0657 37.3653C32.4925 37.0056 34.6078 35.7837 35.7573 33.9449C37.0709 31.8433 37.6306 29.3381 37.8017 26.6807C37.9749 23.9898 37.7449 21.4153 37.6274 19.045C37.5126 16.7294 37.5393 15.1866 37.6451 14.0155C37.7525 12.8266 37.9421 12.0528 38.0638 11.4643C38.3391 10.1343 39.6406 9.27905 40.9706 9.55423ZM27.3616 18.859C26.6233 19.2137 25.817 19.6607 25.0116 20.199C22.948 21.5782 21.2951 23.2894 20.6514 25.1165C19.7292 27.734 19.6956 29.6685 20.1709 31.2263C20.5044 32.319 21.1369 33.383 22.1452 34.4634C23.0228 33.5411 23.8827 32.4474 24.7447 31.1375C26.5 28.4701 27.1693 24.7485 27.3307 21.436C27.3763 20.5009 27.379 19.6275 27.3616 18.859Z" fill="#3A972E"/>
</svg>
