<svg width="107" height="26" viewBox="0 0 107 26" fill="none" xmlns="http://www.w3.org/2000/svg">
<path d="M1.51762 22.0168C5.9541 21.323 8.77949 19.9697 11.397 15.9924C14.0144 12.015 13.121 5.48281 13.121 5.48281C11.4904 5.79212 7.28109 7.79276 6.17273 10.9389C4.88436 14.5959 5.83113 17.0805 8.52785 19.2756C11.2246 21.4708 16.2221 20.8764 18.2111 17.6944C20.2001 14.5124 19.7311 10.3976 19.5934 7.62173C19.4558 4.8459 19.6696 4.11883 19.8334 3.32698" stroke="#3A972E" stroke-width="3.03485" stroke-linecap="round" stroke-linejoin="round"/>
<path d="M40.57 18.6697H26.3187C25.7343 18.6697 25.4704 18.1984 25.4704 17.6517C25.4704 17.105 25.7343 16.6338 26.3187 16.6338H32.2379V13.4103H29.1086C27.9022 13.4103 27.5063 13.0332 27.5063 11.8456V6.36003C27.5063 5.17243 27.9022 4.79541 29.1086 4.79541H37.78C38.9865 4.79541 39.3824 5.17243 39.3824 6.36003V11.8456C39.3824 13.0332 38.9865 13.4103 37.78 13.4103H34.6508V16.6338H40.57C41.1543 16.6338 41.4183 17.105 41.4183 17.6517C41.4183 18.1984 41.1543 18.6697 40.57 18.6697ZM30.3716 11.3744H36.517C36.8375 11.3744 36.9506 11.2613 36.9506 10.9408V7.26488C36.9506 6.94441 36.8375 6.83131 36.517 6.83131H30.3716C30.0512 6.83131 29.9381 6.94441 29.9381 7.26488V10.9408C29.9381 11.2613 30.0512 11.3744 30.3716 11.3744ZM54.466 6.54854H46.4355C46.1151 6.54854 46.002 6.66165 46.002 6.98211V9.30077C46.002 9.62124 46.1151 9.73434 46.4355 9.73434H54.6545C55.2389 9.73434 55.5028 10.2056 55.5028 10.7523C55.5028 11.299 55.2389 11.7702 54.6545 11.7702H45.1537C43.9472 11.7702 43.5514 11.3932 43.5514 10.2056V6.07727C43.5514 4.88967 43.9472 4.51265 45.1537 4.51265H54.466C55.0504 4.51265 55.3143 4.98392 55.3143 5.5306C55.3143 6.07727 55.0504 6.54854 54.466 6.54854ZM48.2641 15.597H42.3449C41.7605 15.597 41.4966 15.1257 41.4966 14.579C41.4966 14.0323 41.7605 13.5611 42.3449 13.5611H56.5962C57.1805 13.5611 57.4444 14.0323 57.4444 14.579C57.4444 15.1257 57.1805 15.597 56.5962 15.597H50.677V20.517C50.677 21.2145 50.0926 21.535 49.4705 21.535C48.8484 21.535 48.2641 21.2145 48.2641 20.517V15.597ZM63.3666 13.1652C60.275 13.1652 58.6727 11.3932 58.6727 8.94261C58.6727 6.49199 60.275 4.72001 63.3666 4.72001C66.4581 4.72001 68.0604 6.49199 68.0604 8.94261C68.0604 11.3932 66.4581 13.1652 63.3666 13.1652ZM63.3666 6.7182C61.7265 6.7182 60.9537 7.64189 60.9537 8.94261C60.9537 10.2433 61.7265 11.167 63.3666 11.167C65.0066 11.167 65.7795 10.2433 65.7795 8.94261C65.7795 7.64189 65.0066 6.7182 63.3666 6.7182ZM68.4375 16.9542C65.9303 17.1804 62.1978 17.3124 58.5784 17.3124C57.9941 17.3124 57.7302 16.8411 57.7302 16.2756C57.7302 15.7289 57.9941 15.2576 58.5784 15.2576C61.7831 15.2576 65.1008 15.2199 68.2678 14.9372C68.8522 14.8806 69.1349 15.2954 69.1726 15.842C69.2103 16.3887 69.003 16.8977 68.4375 16.9542ZM69.9078 19.1975V4.75771C69.9078 4.06023 70.4922 3.73976 71.1143 3.73976C71.7175 3.73976 72.3019 4.06023 72.3019 4.75771V19.1975C72.3019 19.895 71.7175 20.2154 71.1143 20.2154C70.4922 20.2154 69.9078 19.895 69.9078 19.1975ZM80.3353 5.36094V6.85016C80.3353 8.00006 80.6935 8.7918 81.5041 9.48928C82.3335 10.1868 83.0498 10.7523 83.6154 11.167C84.1432 11.544 84.1055 12.1473 83.7662 12.6185C83.4834 13.0144 82.8613 13.316 82.2958 12.9201C81.8434 12.5997 81.1459 12.053 80.4107 11.4309C79.5247 10.6957 79.2419 10.3564 79.1477 9.9794H79.1288C79.0346 10.413 78.6953 10.8277 77.8093 11.5629C77.0741 12.185 76.3766 12.7316 75.6414 13.2595C75.0948 13.6553 74.4538 13.3537 74.1711 12.9578C73.8506 12.5054 73.7563 11.8456 74.3407 11.4309C75.1702 10.8277 75.8865 10.2622 76.7159 9.56468C77.5265 8.8672 77.8847 8.07547 77.8847 6.92556V5.36094C77.8847 4.64461 78.4691 4.32414 79.11 4.32414C79.7509 4.32414 80.3353 4.64461 80.3353 5.36094ZM87.9888 4.75771V13.0332C87.9888 13.7307 87.4044 14.0512 86.7823 14.0512C86.1602 14.0512 85.5758 13.7307 85.5758 13.0332V4.75771C85.5758 4.06023 86.1602 3.73976 86.7823 3.73976C87.4044 3.73976 87.9888 4.06023 87.9888 4.75771ZM85.5758 20.4416V17.2181C85.5758 16.8977 85.4627 16.7846 85.1423 16.7846H77.1872C76.6028 16.7846 76.3389 16.3133 76.3389 15.7666C76.3389 15.2199 76.6028 14.7487 77.1872 14.7487H86.3864C87.5929 14.7487 87.9888 15.1257 87.9888 16.3133V20.4416C87.9888 21.1391 87.4044 21.4596 86.7823 21.4596C86.1602 21.4596 85.5758 21.1391 85.5758 20.4416ZM92.3274 14.1454H96.3615V12.939H90.3858C89.8391 12.939 89.5752 12.5054 89.5752 11.9587C89.5752 11.4309 89.8391 10.9974 90.3858 10.9974H104.712C105.259 10.9974 105.523 11.4309 105.523 11.9587C105.523 12.5054 105.259 12.939 104.712 12.939H98.7367V14.1454H101.866C103.072 14.1454 103.468 14.5225 103.468 15.7101V17.0862C103.468 18.2738 103.072 18.6508 101.866 18.6508H94.2125C94.024 18.6508 93.9297 18.7451 93.9297 18.9336V19.2729C93.9297 19.4614 94.024 19.5556 94.2125 19.5556H103.072C103.6 19.5556 103.845 20.0081 103.845 20.4793C103.845 20.9695 103.6 21.403 103.072 21.403H93.1945C91.9881 21.403 91.5922 21.026 91.5922 19.8384V18.4434C91.5922 17.2558 91.9881 16.8788 93.1945 16.8788H100.848C101.037 16.8788 101.131 16.7846 101.131 16.5961V16.2756C101.131 16.0871 101.037 15.9928 100.848 15.9928H92.3274C91.7996 15.9928 91.5545 15.5593 91.5545 15.0691C91.5545 14.5979 91.7996 14.1454 92.3274 14.1454ZM101.847 9.96055H93.2511C92.0446 9.96055 91.6488 9.58354 91.6488 8.39593V5.70025C91.6488 4.51265 92.0446 4.13563 93.2511 4.13563H101.847C103.054 4.13563 103.449 4.51265 103.449 5.70025V8.39593C103.449 9.58354 103.054 9.96055 101.847 9.96055ZM94.4764 8.03776H100.622C100.942 8.03776 101.055 7.92466 101.055 7.60419V6.49199C101.055 6.17153 100.942 6.05842 100.622 6.05842H94.4764C94.1559 6.05842 94.0428 6.17153 94.0428 6.49199V7.60419C94.0428 7.92466 94.1559 8.03776 94.4764 8.03776Z" fill="white"/>
</svg>
