<svg width="107" height="23" viewBox="0 0 107 23" fill="none" xmlns="http://www.w3.org/2000/svg">
<g clip-path="url(#clip0_4117_14153)">
<path d="M2.8169 19.4017C6.70518 18.7937 9.18144 17.6076 11.4755 14.1217C13.7695 10.6358 12.9865 4.91079 12.9865 4.91079C11.5574 5.18187 7.8682 6.9353 6.89679 9.69266C5.76763 12.8978 6.5974 15.0753 8.96089 16.9993C11.3244 18.9232 15.7044 18.4022 17.4476 15.6134C19.1908 12.8246 18.7798 9.21823 18.6591 6.7854C18.5385 4.35257 18.7259 3.71535 18.8695 3.02134" stroke="#3A972E" stroke-width="2.65833" stroke-linecap="round" stroke-linejoin="round"/>
</g>
<path d="M37.4968 3.38967C38.5902 3.38967 38.9484 3.72898 38.9484 4.80348V10.3645C38.9484 11.439 38.5902 11.7783 37.4968 11.7783H34.1037V15.3788H40.4187C40.8711 15.3788 41.0785 15.737 41.0785 16.1706C41.0785 16.6041 40.8711 16.9811 40.4187 16.9811H25.9035C25.4511 16.9811 25.2438 16.6041 25.2438 16.1706C25.2438 15.737 25.4511 15.3788 25.9035 15.3788H32.2186V11.7783H28.8254C27.7321 11.7783 27.3928 11.439 27.3928 10.3645V4.80348C27.3928 3.72898 27.7321 3.38967 28.8254 3.38967H37.4968ZM29.6737 5.01084C29.391 5.01084 29.2779 5.1051 29.2779 5.38786V9.78011C29.2779 10.0629 29.391 10.1571 29.6737 10.1571H36.6485C36.9313 10.1571 37.0444 10.0629 37.0444 9.78011V5.38786C37.0444 5.1051 36.9313 5.01084 36.6485 5.01084H29.6737ZM54.2205 3.1069C54.6729 3.1069 54.8803 3.48392 54.8803 3.91749C54.8803 4.35106 54.6729 4.72808 54.2205 4.72808H45.7376C45.436 4.72808 45.3417 4.82233 45.3417 5.1051V8.14009C45.3417 8.4417 45.436 8.53596 45.7376 8.53596H54.409C54.8614 8.53596 55.0688 8.91297 55.0688 9.32769C55.0688 9.78011 54.8614 10.1383 54.409 10.1383H44.8705C43.7771 10.1383 43.4378 9.79896 43.4378 8.72447V4.52072C43.4378 3.44622 43.7771 3.1069 44.8705 3.1069H54.2205ZM56.4449 12.2496C56.8973 12.2496 57.1047 12.6266 57.1047 13.0602C57.1047 13.4937 56.8973 13.8519 56.4449 13.8519H50.1299V19.149C50.1299 19.6957 49.6774 19.9407 49.1873 19.9407C48.6972 19.9407 48.2448 19.6957 48.2448 19.149V13.8519H41.9297C41.4773 13.8519 41.27 13.4937 41.27 13.0602C41.27 12.6266 41.4773 12.2496 41.9297 12.2496H56.4449ZM63.1022 3.31426C66.1184 3.31426 67.6641 5.08625 67.6641 7.42375C67.6641 9.78011 66.1184 11.5521 63.1022 11.5521C60.0861 11.5521 58.5403 9.78011 58.5403 7.42375C58.5403 5.08625 60.0861 3.31426 63.1022 3.31426ZM63.1022 4.89774C61.2171 4.89774 60.3311 5.99109 60.3311 7.42375C60.3311 8.85642 61.2171 9.96862 63.1022 9.96862C64.9873 9.96862 65.8733 8.85642 65.8733 7.42375C65.8733 5.99109 64.9873 4.89774 63.1022 4.89774ZM68.2862 13.6822C68.7198 13.6445 68.9648 13.9462 68.9837 14.3986C69.0214 14.8321 68.8517 15.228 68.4182 15.2657C65.402 15.5485 61.8769 15.6616 58.1821 15.6616C57.7297 15.6616 57.5224 15.2846 57.5224 14.851C57.5224 14.4174 57.7297 14.0404 58.1821 14.0404C61.5187 14.0404 64.7988 14.0027 68.2862 13.6822ZM70.9065 2.33402C71.3966 2.33402 71.849 2.57908 71.849 3.12575V17.8294C71.849 18.3761 71.3966 18.6212 70.9065 18.6212C70.4352 18.6212 69.9828 18.3761 69.9828 17.8294V3.12575C69.9828 2.57908 70.4352 2.33402 70.9065 2.33402ZM78.8645 2.89954C79.3735 2.89954 79.8259 3.14461 79.8259 3.69128V5.40671C79.8259 6.61317 80.2029 7.44261 81.0889 8.19664C81.9749 8.93182 82.7666 9.53505 83.3887 9.98747C83.8034 10.2891 83.7846 10.7792 83.5207 11.1374C83.2756 11.4767 82.8043 11.6841 82.3708 11.3636C81.8618 11.0054 81.0889 10.421 80.2972 9.76126C79.3735 9.00723 78.9964 8.53596 78.9022 8.14009H78.8833C78.7891 8.57366 78.3744 9.10148 77.4507 9.83667C76.6589 10.4964 75.8861 11.0997 75.0943 11.6652C74.6607 11.9668 74.1706 11.7595 73.9256 11.439C73.6805 11.0808 73.6239 10.553 74.0764 10.2325C74.9624 9.59161 75.7541 8.98838 76.6401 8.25319C77.5261 7.49916 77.9031 6.66972 77.9031 5.46326V3.69128C77.9031 3.14461 78.3744 2.89954 78.8645 2.89954ZM86.5933 2.33402C87.0835 2.33402 87.5359 2.57908 87.5359 3.12575V11.7406C87.5359 12.2873 87.0835 12.5323 86.5933 12.5323C86.1032 12.5323 85.6508 12.2873 85.6508 11.7406V3.12575C85.6508 2.57908 86.1032 2.33402 86.5933 2.33402ZM76.8663 13.3429H86.0844C87.1777 13.3429 87.5359 13.6822 87.5359 14.7567V19.0736C87.5359 19.6203 87.0835 19.8653 86.5933 19.8653C86.1032 19.8653 85.6508 19.6203 85.6508 19.0736V15.3411C85.6508 15.0584 85.5377 14.9641 85.2549 14.9641H76.8663C76.395 14.9641 76.1877 14.5871 76.1877 14.1535C76.1877 13.7199 76.395 13.3429 76.8663 13.3429ZM101.583 12.7586C102.676 12.7586 103.034 13.0979 103.034 14.1724V15.5673C103.034 16.6418 102.676 16.9811 101.583 16.9811H93.6088C93.4015 16.9811 93.3072 17.0566 93.3072 17.2639V18.0368C93.3072 18.2253 93.4015 18.3196 93.6088 18.3196H102.827C103.242 18.3196 103.449 18.6777 103.449 19.0547C103.449 19.4506 103.242 19.7899 102.827 19.7899H92.9302C91.8368 19.7899 91.4787 19.4506 91.4787 18.3761V16.9811C91.4787 15.9066 91.8368 15.5673 92.9302 15.5673H100.904C101.111 15.5673 101.206 15.4731 101.206 15.2846V14.5305C101.206 14.3232 101.111 14.2289 100.904 14.2289H92.0442C91.6295 14.2289 91.441 13.8896 91.441 13.4937C91.441 13.1167 91.6295 12.7586 92.0442 12.7586H96.3422V11.2128H89.9895C89.5559 11.2128 89.3485 10.8735 89.3485 10.4399C89.3485 10.0252 89.5559 9.68586 89.9895 9.68586H104.542C104.976 9.68586 105.183 10.0252 105.183 10.4399C105.183 10.8735 104.976 11.2128 104.542 11.2128H98.1896V12.7586H101.583ZM101.564 2.72989C102.657 2.72989 103.015 3.0692 103.015 4.1437V6.95248C103.015 8.02698 102.657 8.3663 101.564 8.3663H92.9679C91.8745 8.3663 91.5352 8.02698 91.5352 6.95248V4.1437C91.5352 3.0692 91.8745 2.72989 92.9679 2.72989H101.564ZM93.7973 4.25681C93.4957 4.25681 93.4015 4.35106 93.4015 4.65268V6.44351C93.4015 6.74512 93.4957 6.83938 93.7973 6.83938H100.734C101.036 6.83938 101.13 6.74512 101.13 6.44351V4.65268C101.13 4.35106 101.036 4.25681 100.734 4.25681H93.7973Z" fill="white"/>
<defs>
<clipPath id="clip0_4117_14153">
<rect width="22" height="22" fill="white" transform="translate(0 0.5)"/>
</clipPath>
</defs>
</svg>
