<svg width="1049" height="234" viewBox="0 0 1049 234" fill="none" xmlns="http://www.w3.org/2000/svg">
<g clip-path="url(#clip0_3394_13871)">
<path d="M171.672 126.516C179.269 126.878 186.96 129.983 192.59 134.484L192.588 134.484C203.25 143.003 207.265 157.119 209.19 168.947L209.191 168.95C209.48 170.731 208.397 171.888 208.007 172.249C207.537 172.683 207.018 172.962 206.677 173.127C205.95 173.48 205.053 173.775 204.184 174.023C202.393 174.534 200.043 175.032 197.723 175.468C193.122 176.332 188.113 177.043 186.999 177.12L186.993 177.12C179.372 177.638 171.353 176.545 164.402 172.963C164.39 172.957 164.377 172.952 164.366 172.946C160.854 171.128 157.616 168.686 154.873 165.5L154.874 165.499C151.616 161.722 148.806 156.839 147.673 151.635C146.526 146.363 147.089 140.617 150.849 135.613C156.121 128.594 164.01 126.151 171.672 126.516Z" fill="#3A972E" fill-opacity="0.5" stroke="#3A972E" stroke-width="6.68571" stroke-miterlimit="10" stroke-linejoin="round"/>
<path d="M120.538 153.689C128.821 154.988 134.615 160.459 138.02 167.064C141.504 173.825 142.657 182.036 141.572 189.164L141.572 189.165C139.514 202.658 129.316 213.192 120.028 220.78L120.026 220.78C118.623 221.925 117.075 221.559 116.572 221.402C115.963 221.212 115.463 220.903 115.15 220.691C114.483 220.238 113.78 219.608 113.131 218.98C111.793 217.685 110.186 215.9 108.649 214.109C105.604 210.562 102.484 206.583 101.857 205.651C97.5809 199.297 94.5142 191.782 94.15 183.945C94.1463 183.865 94.1453 183.786 94.1473 183.706C93.9905 179.827 94.5079 175.883 95.8604 172.002L95.8601 172.001C97.5043 167.29 100.33 162.415 104.272 158.832C108.263 155.205 113.519 152.821 119.729 153.576L120.538 153.689Z" fill="#3A972E" fill-opacity="0.5" stroke="#3A972E" stroke-width="6.68571" stroke-miterlimit="10" stroke-linejoin="round"/>
<path d="M74.6642 126.085C79.8024 127.729 84.4939 131.091 86.9484 136.851L86.9492 136.851C90.3888 144.927 88.5627 152.981 84.4167 159.435C80.3055 165.835 73.7714 170.944 67.0508 173.568L67.0504 173.567C54.3398 178.533 40.1152 174.974 28.8942 170.714L28.8939 170.713C27.2088 170.074 26.7468 168.56 26.6295 168.041C26.4882 167.416 26.5062 166.827 26.5334 166.45C26.5913 165.644 26.7842 164.72 27.004 163.844C27.4569 162.038 28.2005 159.753 28.9836 157.526C30.5352 153.114 32.4265 148.415 32.9232 147.406L32.9245 147.405C36.2603 140.595 41.1743 134.231 47.6969 129.999C47.7522 129.958 47.8088 129.919 47.8666 129.882C51.1991 127.747 54.9315 126.169 59.0556 125.387C63.9575 124.454 69.5909 124.462 74.6642 126.085Z" fill="#3A972E" fill-opacity="0.5" stroke="#3A972E" stroke-width="6.68571" stroke-miterlimit="10" stroke-linejoin="round"/>
<path d="M71.8751 64.3585C75.3867 66.1761 78.625 68.6182 81.3672 71.8043L81.3659 71.8047C84.6241 75.582 87.4352 80.4652 88.5678 85.6705C89.6788 90.7772 89.1853 96.3296 85.7356 101.221L85.3927 101.691C80.1204 108.711 72.2319 111.153 64.5699 110.789C56.972 110.427 49.2814 107.322 43.6518 102.821L43.6523 102.82C32.9914 94.3007 28.9755 80.1851 27.0502 68.3568L27.0504 68.3546C26.7616 66.5728 27.8442 65.4158 28.2345 65.0555C28.7045 64.6216 29.2225 64.343 29.5635 64.1775C30.2903 63.8248 31.1883 63.5299 32.0573 63.282C33.8483 62.7709 36.1988 62.2721 38.5187 61.8366C43.1198 60.9729 48.1275 60.2625 49.2421 60.185L49.2477 60.1849C56.8665 59.6679 64.8828 60.7593 71.8325 64.3385C71.8465 64.3455 71.8611 64.3513 71.8751 64.3585Z" fill="#3A972E" fill-opacity="0.5" stroke="#3A972E" stroke-width="6.68571" stroke-miterlimit="10" stroke-linejoin="round"/>
<path d="M120.468 13.7339C121.135 14.1867 121.839 14.8163 122.488 15.4447C123.825 16.7397 125.433 18.5254 126.97 20.316C130.017 23.8651 133.14 27.8472 133.763 28.7758L133.763 28.7753C138.038 35.129 141.105 42.6437 141.469 50.4798C141.472 50.5482 141.472 50.6165 141.471 50.6847C141.621 54.3273 141.179 58.0277 140.008 61.6792L139.759 62.4229L139.758 62.4238C138.114 67.1343 135.289 72.0104 131.348 75.5931C127.356 79.2206 122.1 81.6032 115.89 80.8474L115.89 80.8487C107.174 79.7886 101.114 74.1795 97.5993 67.3612C94.1146 60.6005 92.961 52.389 94.0467 45.2607L94.0471 45.2599C96.1048 31.767 106.303 21.2333 115.592 13.6451L115.593 13.6448C116.996 12.4999 118.544 12.8653 119.046 13.0225C119.656 13.2131 120.155 13.5215 120.468 13.7339Z" fill="#3A972E" fill-opacity="0.5" stroke="#3A972E" stroke-width="6.68571" stroke-miterlimit="10" stroke-linejoin="round"/>
<path d="M206.713 63.7004C208.399 64.3395 208.861 65.8544 208.978 66.3726C209.119 66.9975 209.101 67.5862 209.074 67.9639C209.016 68.7694 208.823 69.6939 208.603 70.57C208.151 72.376 207.407 74.6608 206.624 76.8875C205.072 81.2998 203.181 85.9991 202.684 87.008L202.683 87.0075C199.348 93.8179 194.433 100.182 187.91 104.414C187.855 104.454 187.799 104.494 187.741 104.531C184.408 106.667 180.676 108.245 176.552 109.026C171.65 109.959 166.016 109.952 160.943 108.329C155.805 106.685 151.114 103.322 148.66 97.5619L148.659 97.5614C145.219 89.4861 147.045 81.4331 151.191 74.9787C155.302 68.5784 161.836 63.47 168.557 60.8453L169.153 60.619C181.711 55.9907 195.667 59.506 206.713 63.6995L206.713 63.7004Z" fill="#3A972E" fill-opacity="0.5" stroke="#3A972E" stroke-width="6.68571" stroke-miterlimit="10" stroke-linejoin="round"/>
<path d="M172.724 80.6383C174.305 79.6856 176.359 80.1944 177.312 81.7752C178.265 83.3564 177.756 85.4113 176.174 86.3643L134.537 111.454C136.034 115.153 136.244 119.338 134.968 123.27L181.12 149.916C182.719 150.839 183.266 152.883 182.343 154.482C181.42 156.081 179.376 156.629 177.777 155.706L131.719 129.114C128.935 132.412 125.076 134.467 120.972 135.057L121.039 190.757C121.04 192.603 119.545 194.101 117.699 194.103C115.854 194.105 114.355 192.611 114.353 190.765L114.285 134.708C112.777 134.326 111.295 133.734 109.881 132.918C108.089 131.883 106.551 130.574 105.292 129.076L57.5925 157.823C56.0112 158.775 53.9566 158.266 53.0038 156.684C52.0514 155.103 52.561 153.049 54.142 152.096L102.062 123.217C100.927 119.666 100.937 115.759 102.256 112.104L56.1868 85.5054C54.5884 84.5821 54.0403 82.5378 54.9633 80.9391C55.8863 79.3405 57.9308 78.7929 59.5296 79.7156L105.693 106.368C108.013 103.793 111.008 102.034 114.245 101.207L114.185 50.6714C114.183 48.8254 115.678 47.3268 117.524 47.3245C119.37 47.3224 120.868 48.817 120.871 50.6628L120.931 100.832C123.066 101.132 125.181 101.839 127.164 102.984C128.558 103.789 129.797 104.76 130.872 105.856L172.724 80.6383ZM123.821 108.774C118.753 105.848 112.272 107.584 109.346 112.652C106.42 117.721 108.156 124.202 113.224 127.128C118.292 130.054 124.773 128.317 127.7 123.249C130.626 118.181 128.889 111.7 123.821 108.774Z" fill="#3A972E"/>
</g>
<path d="M396.104 122.817H351.877V157.741H417.339V172.484H268.866V157.741H334.328V122.817H290.102V45.597H396.104V122.817ZM307.301 108.075H378.905V60.339H307.301V108.075ZM554.432 105.267H445.095V41.385H552.677V56.127H462.47V90.525H554.432V105.267ZM490.55 194.07V140.367H425.088V125.625H573.561V140.367H508.1V194.07H490.55ZM636.067 121.062C629.398 121.062 623.431 120.067 618.166 118.078C612.901 116.089 608.396 113.457 604.652 110.181C600.908 106.905 598.042 103.161 596.053 98.949C594.064 94.737 593.069 90.3495 593.069 85.7865V77.7135C593.069 73.1505 594.064 68.763 596.053 64.551C598.042 60.339 600.908 56.595 604.652 53.319C608.396 50.043 612.901 47.4105 618.166 45.4215C623.431 43.4325 629.398 42.438 636.067 42.438C642.736 42.438 648.703 43.4325 653.968 45.4215C659.233 47.4105 663.737 50.043 667.481 53.319C671.225 56.595 674.092 60.339 676.081 64.551C678.07 68.763 679.064 73.1505 679.064 77.7135V85.7865C679.064 90.3495 678.07 94.737 676.081 98.949C674.092 103.161 671.225 106.905 667.481 110.181C663.737 113.457 659.233 116.089 653.968 118.078C648.703 120.067 642.736 121.062 636.067 121.062ZM636.067 105.969C639.694 105.969 643.087 105.384 646.246 104.214C649.522 103.044 652.33 101.523 654.67 99.651C657.127 97.662 658.999 95.3805 660.286 92.8065C661.69 90.2325 662.392 87.5415 662.392 84.7335V78.7665C662.392 75.8415 661.69 73.092 660.286 70.518C658.999 67.827 657.127 65.5455 654.67 63.6735C652.33 61.8015 649.522 60.339 646.246 59.286C643.087 58.116 639.694 57.531 636.067 57.531C632.323 57.531 628.871 58.116 625.712 59.286C622.553 60.339 619.745 61.8015 617.288 63.6735C614.948 65.5455 613.076 67.827 611.672 70.518C610.385 73.092 609.742 75.8415 609.742 78.7665V84.7335C609.742 87.5415 610.385 90.2325 611.672 92.8065C613.076 95.3805 614.948 97.662 617.288 99.651C619.745 101.523 622.553 103.044 625.712 104.214C628.871 105.384 632.323 105.969 636.067 105.969ZM691.7 156.162C684.329 156.864 676.783 157.507 669.061 158.092C661.339 158.56 653.149 158.97 644.491 159.321C635.95 159.672 626.765 159.964 616.937 160.198C607.226 160.315 596.638 160.374 585.172 160.374V145.281C596.755 145.281 607.343 145.222 616.937 145.105C626.648 144.988 635.716 144.813 644.14 144.579C652.564 144.228 660.52 143.818 668.008 143.35C675.496 142.882 682.867 142.297 690.121 141.595L691.7 156.162ZM700.124 194.07V32.259H717.323V194.07H700.124ZM853.89 32.259H871.089V126.327H853.89V32.259ZM764.56 134.751H871.089V195.65H853.714V149.668H764.56V134.751ZM788.077 87.5415C787.609 89.0625 786.205 91.1685 783.865 93.8595C781.525 96.5505 779.01 99.1245 776.319 101.581C772.692 104.974 768.421 108.718 763.507 112.813C758.593 116.908 753.796 120.828 749.116 124.572L738.762 112.287C741.57 110.181 744.319 108.016 747.01 105.793C749.818 103.57 752.451 101.406 754.908 99.3C757.482 97.194 759.822 95.205 761.928 93.333C764.034 91.344 765.847 89.589 767.368 88.068C769.591 85.845 771.405 83.739 772.809 81.75C774.33 79.644 775.5 77.538 776.319 75.432C777.255 73.209 777.898 70.869 778.249 68.412C778.6 65.955 778.776 63.2055 778.776 60.1635V38.928H796.326V59.4615C796.326 62.1525 796.384 64.6095 796.501 66.8325C796.735 68.9385 797.145 70.9275 797.73 72.7995C798.315 74.6715 799.192 76.5435 800.362 78.4155C801.649 80.1705 803.346 81.984 805.452 83.856C809.547 87.6 814.051 91.5195 818.965 95.6145C823.996 99.5925 829.144 103.453 834.409 107.197L824.23 119.307C819.667 115.914 815.221 112.462 810.892 108.952C806.68 105.442 802.468 101.932 798.256 98.4225C795.565 96.1995 793.342 94.152 791.587 92.28C789.949 90.408 788.838 88.8285 788.253 87.5415H788.077ZM914.991 195.123V154.933H1003.79V142.999H914.114V128.784H959.217V113.515H893.756V99.1245H1042.23V113.515H976.767V128.784H1020.82V168.798H932.015V180.908H1025.56V195.123H914.991ZM1020.64 88.068H915.342V35.9445H1020.64V88.068ZM1003.62 50.3355H932.366V73.677H1003.62V50.3355Z" fill="#313131"/>
<defs>
<clipPath id="clip0_3394_13871">
<rect width="234" height="234" fill="white"/>
</clipPath>
</defs>
</svg>
