<svg width="274" height="56" viewBox="0 0 274 56" fill="none" xmlns="http://www.w3.org/2000/svg">
<rect y="0.719238" width="55.2809" height="55.2809" rx="13.8202" fill="#3A972E"/>
<path d="M40.9711 10.2735C42.3012 10.5487 43.1564 11.8502 42.8812 13.1803C42.7374 13.8751 42.6206 14.3321 42.5441 15.1775C42.4661 16.0411 42.4317 17.3374 42.54 19.5205C42.6455 21.649 42.9074 24.6586 42.7105 27.7161C42.5116 30.8071 41.8387 34.2152 39.9289 37.2707C37.8547 40.589 34.3084 42.4279 30.7869 42.9498C27.9141 43.3755 24.8077 42.9623 22.2228 41.5327C21.8673 41.7712 21.5049 41.9986 21.1343 42.2138C18.1901 43.9235 14.912 44.8171 11.1678 45.4026C9.82591 45.6124 8.56764 44.695 8.35775 43.3531C8.1479 42.0111 9.06598 40.753 10.4079 40.5432C13.636 40.0384 16.1274 39.3351 18.2409 38.1964C16.9816 36.7712 16.018 35.187 15.4669 33.381C14.6043 30.5541 14.8469 27.5111 16.0129 24.2015C17.1656 20.9297 19.8223 18.4703 22.2794 16.8282C24.7447 15.1806 27.4164 14.0857 29.1356 13.7596L29.2596 13.7395C29.8828 13.654 30.5172 13.8107 31.0303 14.1799C31.5774 14.5737 31.9391 15.1746 32.0305 15.8425L32.0372 15.8918C32.0324 15.8593 32.0308 15.844 32.0308 15.844L32.0305 15.8453C32.0305 15.8453 32.0314 15.8477 32.0316 15.8491C32.0319 15.8519 32.0319 15.8553 32.0324 15.8593C32.0335 15.8675 32.0354 15.8785 32.0372 15.8918C32.0406 15.9184 32.0449 15.955 32.0505 16.0012C32.0616 16.0935 32.0768 16.2243 32.094 16.3899C32.1283 16.721 32.1708 17.1927 32.2078 17.7751C32.2816 18.9372 32.3333 20.5567 32.2437 22.3951C32.0686 25.9875 31.3407 30.7823 28.8539 34.561C28.0387 35.7998 27.198 36.9077 26.3215 37.9013C27.4731 38.2024 28.7604 38.2781 30.0662 38.0846C32.493 37.7249 34.6083 36.5029 35.7578 34.6641C37.0714 32.5625 37.6311 30.0574 37.8022 27.4C37.9754 24.7091 37.7454 22.1345 37.6279 19.7642C37.513 17.4486 37.5398 15.9058 37.6456 14.7347C37.753 13.5458 37.9425 12.772 38.0643 12.1836C38.3396 10.8535 39.6411 9.99829 40.9711 10.2735ZM27.3621 19.5782C26.6238 19.9329 25.8174 20.38 25.0121 20.9182C22.9485 22.2974 21.2956 24.0086 20.6519 25.8357C19.7297 28.4532 19.6961 30.3878 20.1714 31.9455C20.5049 33.0382 21.1373 34.1022 22.1457 35.1826C23.0233 34.2604 23.8832 33.1666 24.7452 31.8567C26.5005 29.1894 27.1698 25.4677 27.3312 22.1553C27.3768 21.2202 27.3795 20.3468 27.3621 19.5782Z" fill="white"/>
<path d="M102.968 42.4206H67.6407C66.192 42.4206 65.5378 41.2523 65.5378 39.8972C65.5378 38.542 66.192 37.3738 67.6407 37.3738H82.3138V29.383H74.5566C71.566 29.383 70.5846 28.4484 70.5846 25.5044V11.9061C70.5846 8.96215 71.566 8.02755 74.5566 8.02755H96.0523C99.043 8.02755 100.024 8.96215 100.024 11.9061V25.5044C100.024 28.4484 99.043 29.383 96.0523 29.383H88.2952V37.3738H102.968C104.417 37.3738 105.071 38.542 105.071 39.8972C105.071 41.2523 104.417 42.4206 102.968 42.4206ZM77.6875 24.3362H92.9214C93.7158 24.3362 93.9962 24.0558 93.9962 23.2614V14.1491C93.9962 13.3547 93.7158 13.0744 92.9214 13.0744H77.6875C76.8931 13.0744 76.6128 13.3547 76.6128 14.1491V23.2614C76.6128 24.0558 76.8931 24.3362 77.6875 24.3362ZM139.285 12.3734H119.378C118.583 12.3734 118.303 12.6538 118.303 13.4482V19.1959C118.303 19.9903 118.583 20.2707 119.378 20.2707H139.752C141.2 20.2707 141.855 21.439 141.855 22.7941C141.855 24.1493 141.2 25.3175 139.752 25.3175H116.2C113.209 25.3175 112.228 24.3829 112.228 21.439V11.2052C112.228 8.2612 113.209 7.32661 116.2 7.32661H139.285C140.733 7.32661 141.387 8.49485 141.387 9.85001C141.387 11.2052 140.733 12.3734 139.285 12.3734ZM123.91 34.8036H109.237C107.789 34.8036 107.135 33.6354 107.135 32.2802C107.135 30.9251 107.789 29.7568 109.237 29.7568H144.565C146.014 29.7568 146.668 30.9251 146.668 32.2802C146.668 33.6354 146.014 34.8036 144.565 34.8036H129.892V47.0001C129.892 48.7291 128.443 49.5235 126.901 49.5235C125.359 49.5235 123.91 48.7291 123.91 47.0001V34.8036ZM163.217 28.7755C155.554 28.7755 151.582 24.3829 151.582 18.3081C151.582 12.2332 155.554 7.84063 163.217 7.84063C170.881 7.84063 174.853 12.2332 174.853 18.3081C174.853 24.3829 170.881 28.7755 163.217 28.7755ZM163.217 12.794C159.152 12.794 157.236 15.0837 157.236 18.3081C157.236 21.5324 159.152 23.8222 163.217 23.8222C167.283 23.8222 169.199 21.5324 169.199 18.3081C169.199 15.0837 167.283 12.794 163.217 12.794ZM175.788 38.1682C169.573 38.7289 160.32 39.056 151.348 39.056C149.899 39.056 149.245 37.8878 149.245 36.4859C149.245 35.1307 149.899 33.9625 151.348 33.9625C159.292 33.9625 167.517 33.869 175.367 33.1681C176.816 33.0279 177.517 34.056 177.61 35.4111C177.704 36.7663 177.19 38.028 175.788 38.1682ZM179.433 43.729V7.93409C179.433 6.2051 180.881 5.41069 182.423 5.41069C183.919 5.41069 185.367 6.2051 185.367 7.93409V43.729C185.367 45.458 183.919 46.2524 182.423 46.2524C180.881 46.2524 179.433 45.458 179.433 43.729ZM207.151 9.42944V13.1211C207.151 15.9716 208.038 17.9342 210.048 19.6632C212.104 21.3922 213.88 22.7941 215.281 23.8222C216.59 24.7568 216.496 26.2521 215.655 27.4204C214.954 28.4017 213.412 29.1493 212.01 28.168C210.889 27.3736 209.16 26.0185 207.337 24.4764C205.141 22.6539 204.44 21.8128 204.207 20.8782H204.16C203.926 21.953 203.085 22.981 200.889 24.8035C199.066 26.3456 197.337 27.7007 195.515 29.0092C194.16 29.9905 192.571 29.2428 191.87 28.2615C191.076 27.14 190.842 25.5044 192.291 24.4764C194.347 22.981 196.122 21.5791 198.178 19.8502C200.188 18.1212 201.076 16.1585 201.076 13.308V9.42944C201.076 7.65372 202.524 6.85931 204.113 6.85931C205.702 6.85931 207.151 7.65372 207.151 9.42944ZM226.123 7.93409V28.4484C226.123 30.1774 224.674 30.9718 223.132 30.9718C221.59 30.9718 220.141 30.1774 220.141 28.4484V7.93409C220.141 6.2051 221.59 5.41069 223.132 5.41069C224.674 5.41069 226.123 6.2051 226.123 7.93409ZM220.141 46.8132V38.8224C220.141 38.028 219.861 37.7476 219.067 37.7476H199.347C197.898 37.7476 197.244 36.5794 197.244 35.2242C197.244 33.869 197.898 32.7008 199.347 32.7008H222.151C225.141 32.7008 226.123 33.6354 226.123 36.5794V46.8132C226.123 48.5421 224.674 49.3366 223.132 49.3366C221.59 49.3366 220.141 48.5421 220.141 46.8132ZM238.747 31.2055H248.747V28.2148H233.934C232.579 28.2148 231.925 27.14 231.925 25.7848C231.925 24.4764 232.579 23.4016 233.934 23.4016H269.448C270.804 23.4016 271.458 24.4764 271.458 25.7848C271.458 27.14 270.804 28.2148 269.448 28.2148H254.635V31.2055H262.392C265.383 31.2055 266.364 32.14 266.364 35.084V38.4953C266.364 41.4392 265.383 42.3738 262.392 42.3738H243.42C242.953 42.3738 242.719 42.6075 242.719 43.0748V43.9159C242.719 44.3832 242.953 44.6169 243.42 44.6169H265.383C266.691 44.6169 267.299 45.7384 267.299 46.9066C267.299 48.1216 266.691 49.1964 265.383 49.1964H240.897C237.906 49.1964 236.925 48.2618 236.925 45.3178V41.8598C236.925 38.9158 237.906 37.9813 240.897 37.9813H259.869C260.336 37.9813 260.57 37.7476 260.57 37.2803V36.4859C260.57 36.0186 260.336 35.785 259.869 35.785H238.747C237.439 35.785 236.831 34.7102 236.831 33.4952C236.831 32.327 237.439 31.2055 238.747 31.2055ZM262.346 20.8315H241.037C238.046 20.8315 237.065 19.8969 237.065 16.9529V10.2706C237.065 7.32661 238.046 6.39202 241.037 6.39202H262.346C265.336 6.39202 266.318 7.32661 266.318 10.2706V16.9529C266.318 19.8969 265.336 20.8315 262.346 20.8315ZM244.074 16.0651H259.308C260.103 16.0651 260.383 15.7847 260.383 14.9903V12.2332C260.383 11.4388 260.103 11.1584 259.308 11.1584H244.074C243.28 11.1584 242.999 11.4388 242.999 12.2332V14.9903C242.999 15.7847 243.28 16.0651 244.074 16.0651Z" fill="#3A972E"/>
</svg>
