<svg width="1049" height="234" viewBox="0 0 1049 234" fill="none" xmlns="http://www.w3.org/2000/svg">
<g clip-path="url(#clip0_3394_13850)">
<path d="M165.929 169.977C162.762 168.338 159.873 166.153 157.434 163.319C151.47 156.407 147.445 145.743 153.548 137.621C162.438 125.785 180.308 128.923 190.528 137.095C200.146 144.78 204.011 157.773 205.918 169.485C206.175 171.071 188.607 173.659 186.793 173.785C179.598 174.273 172.205 173.223 165.919 169.972L165.929 169.977Z" fill="white" fill-opacity="0.3"/>
<path d="M171.698 126.516C179.296 126.878 186.986 129.983 192.616 134.484L192.615 134.484C203.276 143.003 207.291 157.119 209.217 168.947L209.217 168.95C209.506 170.731 208.424 171.888 208.033 172.249C207.563 172.683 207.044 172.962 206.703 173.127C205.976 173.48 205.079 173.775 204.211 174.023C202.42 174.534 200.069 175.032 197.749 175.468C193.148 176.332 188.14 177.043 187.025 177.12L187.02 177.12C179.398 177.638 171.379 176.545 164.428 172.963C164.416 172.957 164.404 172.952 164.392 172.946C160.88 171.128 157.642 168.686 154.9 165.5L154.9 165.499C151.643 161.722 148.832 156.839 147.7 151.635C146.553 146.363 147.116 140.617 150.875 135.613C156.148 128.594 164.036 126.151 171.698 126.516Z" stroke="white" stroke-opacity="0.7" stroke-width="6.68571" stroke-miterlimit="10" stroke-linejoin="round"/>
<path d="M97.5165 183.781C97.348 180.227 97.8086 176.632 99.0386 173.103C102.048 164.482 109.268 155.668 119.347 156.895C134.048 158.683 140.26 175.719 138.289 188.661C136.433 200.836 127.128 210.68 117.935 218.191C116.694 219.203 105.663 205.29 104.652 203.785C100.625 197.801 97.84 190.869 97.5111 183.79L97.5165 183.781Z" fill="white" fill-opacity="0.3"/>
<path d="M120.56 153.689C128.843 154.988 134.637 160.459 138.042 167.064C141.526 173.825 142.679 182.036 141.594 189.164L141.594 189.165C139.536 202.658 129.338 213.192 120.05 220.78L120.048 220.78C118.645 221.925 117.097 221.559 116.594 221.402C115.985 221.212 115.485 220.903 115.172 220.691C114.505 220.238 113.802 219.608 113.153 218.98C111.815 217.685 110.208 215.9 108.671 214.109C105.626 210.562 102.506 206.583 101.879 205.651C97.6028 199.297 94.5362 191.782 94.1719 183.945C94.1682 183.865 94.1672 183.786 94.1693 183.706C94.0125 179.827 94.5299 175.883 95.8824 172.002L95.882 172.001C97.5263 167.29 100.352 162.415 104.294 158.832C108.285 155.205 113.541 152.821 119.751 153.576L120.56 153.689Z" stroke="white" stroke-opacity="0.7" stroke-width="6.68571" stroke-miterlimit="10" stroke-linejoin="round"/>
<path d="M49.6793 132.697C52.683 130.772 56.0177 129.367 59.6868 128.671C68.6594 126.963 79.8957 128.807 83.8819 138.162C89.6827 151.781 78.0442 165.689 65.8433 170.454C54.3742 174.935 41.1934 171.804 30.0896 167.589C28.5865 167.023 35.1286 150.513 35.9314 148.882C39.1003 142.41 43.7073 136.529 49.6738 132.706L49.6793 132.697Z" fill="white" fill-opacity="0.3"/>
<path d="M74.673 126.085C79.8112 127.729 84.5027 131.091 86.9572 136.851L86.958 136.851C90.3976 144.927 88.5715 152.981 84.4255 159.435C80.3143 165.835 73.7802 170.944 67.0596 173.568L67.0592 173.567C54.3486 178.533 40.124 174.974 28.903 170.714L28.9027 170.713C27.2176 170.074 26.7556 168.56 26.6383 168.041C26.497 167.416 26.515 166.827 26.5422 166.45C26.6001 165.644 26.793 164.72 27.0127 163.844C27.4657 162.038 28.2093 159.753 28.9924 157.526C30.544 153.114 32.4353 148.415 32.932 147.406L32.9333 147.405C36.2691 140.595 41.1831 134.231 47.7057 129.999C47.761 129.958 47.8176 129.919 47.8754 129.882C51.2079 127.747 54.9403 126.169 59.0644 125.387C63.9663 124.454 69.5997 124.462 74.673 126.085Z" stroke="white" stroke-opacity="0.7" stroke-width="6.68571" stroke-miterlimit="10" stroke-linejoin="round"/>
<path d="M70.365 67.3272C73.5317 68.9663 76.4209 71.1516 78.8599 73.9855C84.8234 80.898 88.8485 91.5615 82.7462 99.6834C73.8559 111.52 55.9859 108.382 45.7658 100.21C36.1479 92.5249 32.2823 79.5311 30.3761 67.82C30.1189 66.2332 47.6864 63.6457 49.5003 63.5196C56.6961 63.0312 64.0884 64.0819 70.3745 67.3327L70.365 67.3272Z" fill="white" fill-opacity="0.3"/>
<path d="M71.9014 64.3585C75.413 66.1761 78.6513 68.6182 81.3936 71.8043L81.3923 71.8047C84.6505 75.582 87.4616 80.4652 88.5941 85.6705C89.7052 90.7772 89.2117 96.3296 85.7619 101.221L85.4191 101.691C80.1467 108.711 72.2582 111.153 64.5963 110.789C56.9984 110.427 49.3078 107.322 43.6782 102.821L43.6787 102.82C33.0177 94.3007 29.0019 80.1851 27.0766 68.3568L27.0767 68.3546C26.788 66.5728 27.8706 65.4158 28.2609 65.0555C28.7309 64.6216 29.2488 64.343 29.5899 64.1775C30.3167 63.8248 31.2146 63.5299 32.0836 63.282C33.8747 62.7709 36.2251 62.2721 38.545 61.8366C43.1461 60.9729 48.1539 60.2625 49.2684 60.185L49.2741 60.1849C56.8928 59.6679 64.9092 60.7593 71.8589 64.3385C71.8729 64.3455 71.8875 64.3513 71.9014 64.3585Z" stroke="white" stroke-opacity="0.7" stroke-width="6.68571" stroke-miterlimit="10" stroke-linejoin="round"/>
<path d="M138.133 50.6266C138.302 54.1808 137.841 57.7756 136.611 61.3046C133.602 69.9255 126.381 78.7391 116.302 77.5124C101.602 75.7244 95.3891 58.6884 97.3603 45.7464C99.217 33.5709 108.521 23.7271 117.715 16.2166C118.955 15.2043 129.986 29.1177 130.997 30.6224C135.024 36.6062 137.81 43.5385 138.138 50.6171L138.133 50.6266Z" fill="white" fill-opacity="0.3"/>
<path d="M120.477 13.7164C121.144 14.1692 121.848 14.7988 122.497 15.4271C123.834 16.7221 125.441 18.5078 126.979 20.2984C130.026 23.8475 133.148 27.8296 133.772 28.7582L133.771 28.7577C138.047 35.1114 141.114 42.6261 141.478 50.4623C141.481 50.5306 141.48 50.5989 141.479 50.6671C141.63 54.3097 141.187 58.0101 140.017 61.6616L139.768 62.4053L139.767 62.4062C138.123 67.1167 135.298 71.9929 131.356 75.5755C127.365 79.203 122.109 81.5856 115.898 80.8298L115.899 80.8312C107.182 79.771 101.122 74.1619 97.6081 67.3437C94.1234 60.5829 92.9697 52.3715 94.0554 45.2431L94.0559 45.2423C96.1136 31.7495 106.312 21.2157 115.6 13.6275L115.602 13.6272C117.005 12.4824 118.552 12.8477 119.055 13.0049C119.664 13.1955 120.164 13.504 120.477 13.7164Z" stroke="white" stroke-opacity="0.7" stroke-width="6.68571" stroke-miterlimit="10" stroke-linejoin="round"/>
<path d="M185.959 101.717C182.955 103.641 179.621 105.047 175.952 105.742C166.979 107.45 155.743 105.606 151.757 96.2518C145.956 82.6327 157.594 68.7241 169.795 63.9592C181.264 59.4783 194.445 62.6093 205.549 66.8248C207.052 67.3898 200.51 83.9002 199.707 85.5311C196.538 92.0032 191.931 97.8848 185.965 101.707L185.959 101.717Z" fill="white" fill-opacity="0.3"/>
<path d="M206.735 63.7004C208.421 64.3395 208.883 65.8544 209 66.3726C209.141 66.9975 209.123 67.5862 209.096 67.9639C209.038 68.7694 208.845 69.6939 208.625 70.57C208.173 72.376 207.429 74.6608 206.646 76.8875C205.094 81.2998 203.203 85.9991 202.706 87.008L202.705 87.0075C199.37 93.8179 194.455 100.182 187.932 104.414C187.877 104.454 187.821 104.494 187.763 104.531C184.43 106.667 180.698 108.245 176.574 109.026C171.672 109.959 166.038 109.952 160.965 108.329C155.827 106.685 151.136 103.322 148.682 97.5619L148.681 97.5614C145.241 89.4861 147.067 81.4331 151.213 74.9787C155.324 68.5784 161.858 63.47 168.579 60.8453L169.175 60.619C181.733 55.9907 195.689 59.506 206.735 63.6995L206.735 63.7004Z" stroke="white" stroke-opacity="0.7" stroke-width="6.68571" stroke-miterlimit="10" stroke-linejoin="round"/>
<path d="M172.727 80.6544C174.308 79.7017 176.362 80.2108 177.315 81.7913C178.268 83.3725 177.759 85.4275 176.178 86.3804L134.548 111.465C136.041 115.162 136.247 119.343 134.972 123.271L181.119 149.915C182.718 150.838 183.265 152.882 182.342 154.481C181.419 156.079 179.375 156.627 177.776 155.704L131.721 129.115C128.937 132.412 125.078 134.467 120.975 135.057L121.043 190.772C121.045 192.618 119.549 194.117 117.703 194.119C115.857 194.121 114.359 192.627 114.356 190.781L114.288 134.707C112.781 134.325 111.3 133.732 109.886 132.916C108.098 131.884 106.564 130.579 105.306 129.086L57.596 157.839C56.0149 158.791 53.9611 158.282 53.0082 156.701C52.0559 155.12 52.5645 153.065 54.1456 152.112L102.072 123.229C100.932 119.675 100.941 115.764 102.26 112.105L56.1865 85.5047C54.5882 84.5815 54.0394 82.5365 54.9622 80.9379C55.8852 79.3394 57.9306 78.7922 59.5293 79.7148L105.695 106.369C108.015 103.793 111.011 102.033 114.249 101.206L114.189 50.688C114.187 48.8422 115.682 47.343 117.528 47.3406C119.374 47.3384 120.872 48.8333 120.874 50.6789L120.934 100.831C123.07 101.131 125.186 101.838 127.168 102.983C128.567 103.79 129.81 104.764 130.887 105.865L172.727 80.6544ZM123.825 108.772C118.757 105.846 112.276 107.583 109.35 112.651C106.424 117.719 108.161 124.2 113.229 127.126C118.297 130.052 124.778 128.316 127.704 123.248C130.63 118.18 128.893 111.699 123.825 108.772Z" fill="white" fill-opacity="0.7"/>
</g>
<path d="M396.104 122.817H351.877V157.741H417.339V172.484H268.866V157.741H334.328V122.817H290.102V45.597H396.104V122.817ZM307.301 108.075H378.905V60.339H307.301V108.075ZM554.432 105.267H445.095V41.385H552.677V56.127H462.47V90.525H554.432V105.267ZM490.55 194.07V140.367H425.088V125.625H573.561V140.367H508.1V194.07H490.55ZM636.067 121.062C629.398 121.062 623.431 120.067 618.166 118.078C612.901 116.089 608.396 113.457 604.652 110.181C600.908 106.905 598.042 103.161 596.053 98.949C594.064 94.737 593.069 90.3495 593.069 85.7865V77.7135C593.069 73.1505 594.064 68.763 596.053 64.551C598.042 60.339 600.908 56.595 604.652 53.319C608.396 50.043 612.901 47.4105 618.166 45.4215C623.431 43.4325 629.398 42.438 636.067 42.438C642.736 42.438 648.703 43.4325 653.968 45.4215C659.233 47.4105 663.737 50.043 667.481 53.319C671.225 56.595 674.092 60.339 676.081 64.551C678.07 68.763 679.064 73.1505 679.064 77.7135V85.7865C679.064 90.3495 678.07 94.737 676.081 98.949C674.092 103.161 671.225 106.905 667.481 110.181C663.737 113.457 659.233 116.089 653.968 118.078C648.703 120.067 642.736 121.062 636.067 121.062ZM636.067 105.969C639.694 105.969 643.087 105.384 646.246 104.214C649.522 103.044 652.33 101.523 654.67 99.651C657.127 97.662 658.999 95.3805 660.286 92.8065C661.69 90.2325 662.392 87.5415 662.392 84.7335V78.7665C662.392 75.8415 661.69 73.092 660.286 70.518C658.999 67.827 657.127 65.5455 654.67 63.6735C652.33 61.8015 649.522 60.339 646.246 59.286C643.087 58.116 639.694 57.531 636.067 57.531C632.323 57.531 628.871 58.116 625.712 59.286C622.553 60.339 619.745 61.8015 617.288 63.6735C614.948 65.5455 613.076 67.827 611.672 70.518C610.385 73.092 609.742 75.8415 609.742 78.7665V84.7335C609.742 87.5415 610.385 90.2325 611.672 92.8065C613.076 95.3805 614.948 97.662 617.288 99.651C619.745 101.523 622.553 103.044 625.712 104.214C628.871 105.384 632.323 105.969 636.067 105.969ZM691.7 156.162C684.329 156.864 676.783 157.507 669.061 158.092C661.339 158.56 653.149 158.97 644.491 159.321C635.95 159.672 626.765 159.964 616.937 160.198C607.226 160.315 596.638 160.374 585.172 160.374V145.281C596.755 145.281 607.343 145.222 616.937 145.105C626.648 144.988 635.716 144.813 644.14 144.579C652.564 144.228 660.52 143.818 668.008 143.35C675.496 142.882 682.867 142.297 690.121 141.595L691.7 156.162ZM700.124 194.07V32.259H717.323V194.07H700.124ZM853.89 32.259H871.089V126.327H853.89V32.259ZM764.56 134.751H871.089V195.65H853.714V149.668H764.56V134.751ZM788.077 87.5415C787.609 89.0625 786.205 91.1685 783.865 93.8595C781.525 96.5505 779.01 99.1245 776.319 101.581C772.692 104.974 768.421 108.718 763.507 112.813C758.593 116.908 753.796 120.828 749.116 124.572L738.762 112.287C741.57 110.181 744.319 108.016 747.01 105.793C749.818 103.57 752.451 101.406 754.908 99.3C757.482 97.194 759.822 95.205 761.928 93.333C764.034 91.344 765.847 89.589 767.368 88.068C769.591 85.845 771.405 83.739 772.809 81.75C774.33 79.644 775.5 77.538 776.319 75.432C777.255 73.209 777.898 70.869 778.249 68.412C778.6 65.955 778.776 63.2055 778.776 60.1635V38.928H796.326V59.4615C796.326 62.1525 796.384 64.6095 796.501 66.8325C796.735 68.9385 797.145 70.9275 797.73 72.7995C798.315 74.6715 799.192 76.5435 800.362 78.4155C801.649 80.1705 803.346 81.984 805.452 83.856C809.547 87.6 814.051 91.5195 818.965 95.6145C823.996 99.5925 829.144 103.453 834.409 107.197L824.23 119.307C819.667 115.914 815.221 112.462 810.892 108.952C806.68 105.442 802.468 101.932 798.256 98.4225C795.565 96.1995 793.342 94.152 791.587 92.28C789.949 90.408 788.838 88.8285 788.253 87.5415H788.077ZM914.991 195.123V154.933H1003.79V142.999H914.114V128.784H959.217V113.515H893.756V99.1245H1042.23V113.515H976.767V128.784H1020.82V168.798H932.015V180.908H1025.56V195.123H914.991ZM1020.64 88.068H915.342V35.9445H1020.64V88.068ZM1003.62 50.3355H932.366V73.677H1003.62V50.3355Z" fill="white"/>
<defs>
<clipPath id="clip0_3394_13850">
<rect width="234" height="234" fill="white"/>
</clipPath>
</defs>
</svg>
