<svg width="100" height="100" viewBox="0 0 100 100" fill="none" xmlns="http://www.w3.org/2000/svg">
<path d="M18.9738 20.4236C18.6883 10.9934 26.1018 3.1169 35.532 2.83136C40.4569 2.68227 44.9565 4.63461 48.1738 7.87587C51.1892 4.44603 55.5634 2.22581 60.4883 2.07669C69.9184 1.7913 77.794 9.2048 78.0795 18.6349C78.2286 23.5589 76.2781 28.0585 73.0379 31.2757C76.4654 34.2909 78.684 38.6635 78.8331 43.5864C79.1184 53.0164 71.7049 60.8921 62.2749 61.1776C57.3511 61.3266 52.8513 59.3768 49.6341 56.137C46.6189 59.5655 42.2462 61.7849 37.3225 61.9341C27.8923 62.2197 20.0158 54.8061 19.7303 45.376C19.5813 40.4525 21.5315 35.9533 24.771 32.7362C21.3422 29.7209 19.123 25.3474 18.9738 20.4236Z" fill="#9FDA97"/>
<circle cx="45.2036" cy="25.8032" r="2.64948" transform="rotate(1.78951 45.2036 25.8032)" fill="#3A972E"/>
<circle cx="59.7969" cy="26.2641" r="2.64948" transform="rotate(1.78951 59.7969 26.2641)" fill="#3A972E"/>
<path d="M56.5967 34.6738C53.7969 34.1818 50.518 34.2599 47.9345 34.6192" stroke="#3A972E" stroke-width="2.5" stroke-linecap="round"/>
<rect x="64.2424" y="71.0098" width="22.7709" height="22.7709" rx="5" transform="rotate(-41.5688 64.2424 71.0098)" fill="#FEF089"/>
<ellipse cx="52.3723" cy="94.1289" rx="31.7295" ry="4.31055" fill="#E9E9E9"/>
<path d="M34.2209 49.9004C36.115 52.0194 40.4509 56.1681 45.6116 59.4971C43.363 60.8532 40.7735 61.7066 37.9915 61.8984L34.2209 49.9004Z" fill="#5BA952"/>
<ellipse cx="26.6611" cy="57.0507" rx="22.4172" ry="10.4298" transform="rotate(46.1835 26.6611 57.0507)" fill="#7BACE2"/>
</svg>
