<svg width="100" height="100" viewBox="0 0 100 100" fill="none" xmlns="http://www.w3.org/2000/svg">
<path d="M18.9735 20.4216C18.688 10.9914 26.1015 3.11494 35.5317 2.82941C40.4567 2.68032 44.9562 4.63266 48.1736 7.87392C51.1889 4.44407 55.5632 2.22385 60.4881 2.07473C69.9181 1.78934 77.7938 9.20284 78.0793 18.6329C78.2283 23.557 76.2779 28.0565 73.0377 31.2737C76.4652 34.289 78.6838 38.6615 78.8328 43.5844C79.1182 53.0144 71.7047 60.8901 62.2747 61.1757C57.3509 61.3247 52.851 59.3749 49.6339 56.135C46.6187 59.5635 42.246 61.783 37.3223 61.9322C27.8921 62.2177 20.0156 54.8042 19.7301 45.374C19.5811 40.4506 21.5312 35.9513 24.7707 32.7342C21.342 29.719 19.1227 25.3455 18.9735 20.4216Z" fill="#9FDA97"/>
<circle cx="45.2036" cy="25.8012" r="2.64948" transform="rotate(1.78951 45.2036 25.8012)" fill="#3A972E"/>
<circle cx="59.7969" cy="26.2622" r="2.64948" transform="rotate(1.78951 59.7969 26.2622)" fill="#3A972E"/>
<path d="M56.5967 34.6172C53.7969 35.1092 50.518 35.0311 47.9345 34.6719" stroke="#3A972E" stroke-width="2.5" stroke-linecap="round"/>
<rect x="64.2422" y="71.0078" width="22.7709" height="22.7709" rx="5" transform="rotate(-41.5688 64.2422 71.0078)" fill="#FEF089"/>
<ellipse cx="52.3721" cy="94.127" rx="31.7295" ry="4.31055" fill="#E9E9E9"/>
<path d="M34.2207 49.8984C36.1148 52.0175 40.4507 56.1662 45.6113 59.4951C43.3628 60.8512 40.7733 61.7046 37.9912 61.8965L34.2207 49.8984Z" fill="#5BA952"/>
<ellipse cx="26.6609" cy="57.0488" rx="22.4172" ry="10.4298" transform="rotate(46.1835 26.6609 57.0488)" fill="#7BACE2"/>
</svg>
