<svg width="30" height="30" viewBox="0 0 30 30" fill="none" xmlns="http://www.w3.org/2000/svg">
<rect width="30" height="30" rx="15" fill="#E4E4E4"/>
<path d="M20.4545 21.136V19.7724C20.4545 19.0491 20.1672 18.3554 19.6557 17.8439C19.1442 17.3324 18.4505 17.0451 17.7272 17.0451H12.2727C11.5494 17.0451 10.8557 17.3324 10.3442 17.8439C9.83275 18.3554 9.54541 19.0491 9.54541 19.7724V21.136M17.7272 11.5906C17.7272 13.0968 16.5062 14.3178 15 14.3178C13.4937 14.3178 12.2727 13.0968 12.2727 11.5906C12.2727 10.0843 13.4937 8.86328 15 8.86328C16.5062 8.86328 17.7272 10.0843 17.7272 11.5906Z" stroke="#919191" stroke-width="1.36364" stroke-linecap="round" stroke-linejoin="round"/>
</svg>
